<?xml version="1.0" encoding="UTF-8" standalone="no"?>
<svg
   xmlns:dc="http://purl.org/dc/elements/1.1/"
   xmlns:cc="http://creativecommons.org/ns#"
   xmlns:rdf="http://www.w3.org/1999/02/22-rdf-syntax-ns#"
   xmlns:svg="http://www.w3.org/2000/svg"
   xmlns="http://www.w3.org/2000/svg"
   id="svg3718"
   version="1.1"
   height="161.5"
   width="638.49994">
  <defs
     id="defs3722">
    <clipPath
       id="clipPath3730"
       clipPathUnits="userSpaceOnUse">
      <rect
         style="stroke-width:1.08557594"
         y="154.39349"
         x="-3.2277808"
         height="69.86982"
         width="628.82837"
         id="rect3732" />
    </clipPath>
  </defs>
  <title
     id="title3706">green divider</title>
  <metadata
     id="metadata15">image/svg+xml<rdf:RDF>
  <cc:Work
     rdf:about="">
    <dc:format>image/svg+xml</dc:format>
    <dc:type
       rdf:resource="http://purl.org/dc/dcmitype/StillImage" />
    <dc:title>green divider</dc:title>
  </cc:Work>
</rdf:RDF>
</metadata>
  <g
     clip-path="url(#clipPath3730)"
     transform="translate(5.49997,-119.00001)"
     id="g3716">
    <title
       id="title3709">Layer 1</title>
    <rect
       style="fill:#ffffff;stroke-width:1px"
       id="svg_1"
       height="161.5"
       width="638.49994"
       y="119.00001"
       x="-5.49997" />
    <path
       style="fill:#000000;fill-rule:evenodd;stroke-width:1px"
       id="path2383"
       d="m 130.42479,192.48453 c 5.34721,-7.56743 3.67273,-18.67903 -0.89786,-21.88477 -8.06312,-5.85628 -16.87626,6.36629 -12.83714,18.52696 4.03111,12.51732 14.12214,21.26775 27.85974,23.76992 29.80334,5.26556 88.75392,-27.17806 126.13977,-37.10584 27.77255,-7.37498 44.73773,3.70697 53.89194,15.98065 -18.81464,-13.32713 -35.96277,-8.69195 -53.61063,-5.4198 -40.49223,7.50779 -82.37617,39.38407 -126.75807,34.37011 -20.7208,-3.09549 -35.23915,-23.67115 -34.04528,-39.80535 0.10605,-1.43376 0.33619,-2.83249 0.69714,-4.1808 2.72756,-9.56168 7.51998,-13.48331 11.76552,-14.64645 11.54058,-3.1619 22.97279,17.87191 7.79487,30.39537 z" />
    <path
       style="fill:#000000;fill-rule:evenodd;stroke-width:1px"
       d="m 120.24643,199.31845 c -8.21336,-7.28897 -16.68681,-18.60231 -24.247163,-23.60678 -79.487198,-52.6152 -120.226158,18.46736 -79.464817,38.89484 6.289549,3.15208 19.323479,5.04418 28.661079,-7.50635 -11.425961,8.71312 -24.1045,5.72146 -29.34193,1.21634 -13.94232,-11.99265 -9.05301,-29.00934 7.343241,-36.78098 25.825468,-9.86099 49.151747,0.6882 69.563787,15.31662 14.578663,8.73599 18.320063,12.81285 30.067013,18.15094 -6.67383,0.27722 -3.16781,-8.49396 -9.51851,-12.61001 l 6.93731,6.92538 v 0 z"
       id="path2390" />
    <path
       style="fill:#000000;fill-rule:evenodd;stroke-width:1px"
       id="path2479"
       d="m 487.11939,189.19992 c -5.67127,7.63101 -3.89527,18.8363 0.95227,22.06903 8.55175,5.90563 17.89917,-6.41998 13.61523,-18.68297 -4.27527,-12.62275 -14.97809,-21.44687 -29.54831,-23.96998 -31.60989,-5.31 -94.13333,27.40681 -133.78531,37.41824 -29.45575,7.43704 -47.44922,-3.73822 -57.1582,-16.11526 19.95495,13.43937 38.14233,8.76516 56.8598,5.46545 42.94666,-7.571 87.3692,-39.71573 134.4411,-34.65955 21.97669,3.12156 37.375,23.8705 36.10883,40.14055 -0.11249,1.44594 -0.35663,2.85634 -0.73944,4.21602 -2.89289,9.6422 -7.97577,13.59676 -12.47864,14.76979 -12.24005,3.18851 -24.36514,-18.0224 -8.26733,-30.65132 z" />
    <path
       style="fill:#000000;fill-rule:evenodd;stroke-width:1px"
       d="m 496.14685,179.48291 c 8.61816,7.23134 17.50928,18.45522 25.44238,23.42012 83.40522,52.19913 126.15223,-18.32134 83.38172,-38.5874 -6.59961,-3.12702 -20.276,-5.00405 -30.07385,7.44713 11.98919,-8.64423 25.29266,-5.67623 30.78826,-1.20673 14.62958,11.89781 9.49921,28.77994 -7.70489,36.49011 -27.09876,9.78299 -51.57483,-0.68277 -72.99304,-15.19551 -15.29749,-8.6669 -19.22327,-12.7115 -31.54908,-18.0074 7.00281,-0.27502 3.32398,8.42679 9.9878,12.51031 z"
       id="path2481" />
  </g>
</svg>
